<svg xmlns="http://www.w3.org/2000/svg" width="824" height="459" fill="none" viewBox="0 0 824 459">
  <path stroke="#6A6A6A" stroke-width="4" d="m605.425 16.403-187 190M618.418 16.59l189 190M604.625 13.9 18.624 206.856m388.905 10.434-189 224M822 212c0 5.523-4.477 10-10 10s-10-4.477-10-10 4.477-10 10-10 10 4.477 10 10ZM622 12c0 5.523-4.477 10-10 10s-10-4.477-10-10 4.477-10 10-10 10 4.477 10 10ZM422 212c0 5.523-4.477 10-10 10s-10-4.477-10-10 4.477-10 10-10 10 4.477 10 10ZM222 447c0 5.523-4.477 10-10 10s-10-4.477-10-10 4.477-10 10-10 10 4.477 10 10ZM22 212c0 5.523-4.477 10-10 10s-10-4.477-10-10 4.477-10 10-10 10 4.477 10 10Z"/>
</svg>
